<?xml version="1.0" standalone="no"?>
<!DOCTYPE svg PUBLIC "-//W3C//DTD SVG 20010904//EN"
 "http://www.w3.org/TR/2001/REC-SVG-20010904/DTD/svg10.dtd">
<svg version="1.0" xmlns="http://www.w3.org/2000/svg"
 width="1080.000000pt" height="1080.000000pt" viewBox="0 0 1080.000000 1080.000000"
 preserveAspectRatio="xMidYMid meet">

<g transform="translate(0.000000,1080.000000) scale(0.100000,-0.100000)"
fill="#000000" stroke="none">
<path d="M5464 8772 c-87 -13 -134 -76 -134 -178 0 -32 -5 -97 -10 -144 -6
-47 -17 -168 -25 -270 -17 -215 -29 -350 -51 -580 -9 -91 -14 -194 -12 -230
l3 -65 62 -3 c60 -3 63 -2 77 27 9 16 20 60 26 98 11 81 41 212 70 308 12 39
26 88 31 110 6 21 14 44 18 50 4 5 27 55 51 110 63 146 172 314 263 406 59 60
199 153 283 188 41 18 104 34 154 40 101 13 709 14 729 2 11 -7 13 -165 15
-937 0 -511 5 -935 9 -941 6 -10 89 -13 356 -13 262 0 351 3 364 13 16 11 17
82 20 947 l2 935 310 3 c350 3 471 -6 564 -42 99 -39 249 -145 316 -223 33
-37 65 -75 73 -83 21 -22 98 -148 126 -205 22 -46 36 -77 78 -175 18 -42 39
-104 63 -185 9 -33 23 -78 31 -100 7 -22 18 -69 23 -105 14 -92 32 -181 42
-207 8 -21 15 -23 78 -23 57 0 69 3 73 18 3 9 -1 73 -8 142 -15 144 -31 329
-44 515 -5 72 -14 166 -20 210 -5 44 -14 150 -20 235 -11 177 -25 265 -46 297
-36 57 93 53 -1997 56 -1058 1 -1932 1 -1943 -1z"/>
<path d="M1863 8703 c-18 -7 -17 -97 0 -112 9 -7 123 -12 353 -13 l339 -3 3
-899 c1 -644 5 -903 13 -913 17 -19 721 -19 738 0 7 10 11 272 11 907 0 700 3
896 13 902 6 4 134 8 284 8 307 0 293 -4 293 78 0 33 -4 41 -22 46 -27 7
-2008 7 -2025 -1z"/>
<path d="M2572 5398 c-9 -9 -12 -248 -12 -1012 0 -952 -1 -1006 -20 -1111 -60
-334 -177 -450 -468 -462 -194 -8 -370 48 -473 151 -27 27 -49 53 -49 58 0 7
8 10 70 22 65 12 138 52 177 96 12 14 39 58 59 98 35 70 36 76 37 185 1 119 0
123 -65 222 -41 64 -78 92 -152 114 -82 25 -119 26 -205 5 -125 -31 -203 -127
-234 -286 -9 -48 -17 -104 -17 -125 0 -60 34 -175 70 -240 40 -72 126 -179
174 -218 20 -17 49 -40 64 -53 45 -38 152 -95 225 -119 124 -40 256 -57 407
-50 126 6 332 31 351 42 4 3 30 9 57 15 44 8 99 30 222 88 29 14 113 71 155
104 6 5 22 18 38 29 45 34 155 182 192 260 20 41 41 83 47 94 11 20 30 88 53
190 7 33 18 80 25 105 17 63 27 1758 11 1789 -12 21 -14 21 -369 21 -265 0
-361 -3 -370 -12z"/>
<path d="M7025 5401 c-3 -5 -5 -382 -5 -838 0 -499 -4 -834 -10 -843 -8 -13
-60 -16 -332 -20 l-323 -5 0 -55 0 -55 1025 0 1025 0 3 34 c2 19 1 44 -2 57
l-6 24 -304 0 c-168 0 -311 3 -320 6 -14 6 -16 89 -16 845 0 819 0 839 -19
849 -25 13 -707 14 -716 1z"/>
<path d="M2117 2453 c-4 -3 -7 -84 -7 -179 0 -148 2 -173 16 -178 27 -10 34 3
34 60 0 63 13 94 39 94 10 0 24 7 31 15 12 15 3 21 -52 39 -13 4 -18 16 -18
44 0 49 17 70 60 74 24 2 36 9 38 21 3 15 -5 17 -66 17 -38 0 -72 -3 -75 -7z"/>
<path d="M2721 2446 c-6 -7 -16 -51 -22 -97 -5 -46 -14 -100 -19 -119 -20 -82
-22 -127 -5 -134 11 -4 21 4 33 24 27 46 81 46 92 -1 5 -18 12 -23 30 -21 13
1 25 4 27 5 1 2 -2 28 -7 58 -5 30 -19 109 -31 177 l-22 122 -32 0 c-18 0 -38
-6 -44 -14z m50 -160 c6 -30 9 -62 5 -71 -9 -24 -41 -14 -40 13 3 92 5 112 13
112 5 0 15 -24 22 -54z"/>
<path d="M3298 2439 c-23 -17 -28 -28 -28 -63 0 -44 12 -67 71 -131 35 -39 43
-66 25 -90 -13 -19 -15 -18 -45 14 -33 35 -51 34 -51 -4 0 -59 86 -89 134 -47
47 42 41 93 -20 159 -24 26 -49 61 -55 77 -11 25 -10 30 6 42 25 19 33 18 40
-6 4 -13 15 -20 31 -20 32 0 32 29 -1 64 -29 32 -69 34 -107 5z"/>
<path d="M3850 2282 c0 -98 3 -181 6 -184 3 -3 14 -4 25 -1 16 5 19 14 19 62
0 66 16 97 47 87 24 -8 33 -33 33 -98 0 -51 12 -67 36 -47 12 10 14 41 13 172
0 88 -3 166 -6 173 -3 8 -13 14 -24 14 -16 0 -19 -10 -21 -77 l-3 -78 -35 0
-35 0 -5 75 c-5 68 -7 75 -27 78 l-23 3 0 -179z"/>
<path d="M4457 2454 c-4 -4 -7 -83 -7 -174 0 -178 7 -204 44 -177 15 11 16 32
14 182 -3 162 -4 170 -23 173 -12 2 -24 0 -28 -4z"/>
<path d="M4957 2432 c-26 -27 -27 -31 -27 -155 0 -125 0 -126 27 -152 37 -33
91 -34 121 -2 20 22 22 33 22 159 l0 137 -29 20 c-41 30 -82 27 -114 -7z m81
-34 c8 -8 12 -50 12 -121 0 -93 -3 -112 -17 -123 -34 -24 -43 1 -43 116 0 60
3 115 6 124 7 19 25 21 42 4z"/>
<path d="M5537 2453 c-4 -3 -7 -84 -7 -179 0 -138 3 -173 14 -177 23 -9 26 2
26 97 0 96 13 144 25 90 3 -16 12 -42 20 -59 8 -16 18 -49 21 -73 8 -48 35
-72 60 -51 12 10 14 43 12 183 -3 163 -4 171 -23 171 -18 0 -21 -8 -25 -80 -4
-54 -8 -74 -14 -60 -4 11 -14 31 -21 45 -7 14 -16 42 -20 63 -6 32 -11 37 -34
37 -15 0 -31 -3 -34 -7z"/>
<path d="M7057 2453 c-11 -10 -8 -351 3 -358 5 -3 19 -1 30 5 17 9 20 21 20
69 0 45 4 60 16 65 24 9 43 -22 44 -71 0 -50 24 -81 47 -61 12 9 13 25 8 77
-4 35 -12 73 -18 82 -9 14 -8 22 1 31 7 7 12 37 12 68 0 51 -3 58 -30 78 -21
16 -43 22 -78 22 -27 0 -52 -3 -55 -7z m101 -55 c13 -13 16 -56 6 -82 -3 -9
-17 -16 -30 -16 -22 0 -24 4 -24 48 0 27 3 52 7 55 10 11 28 8 41 -5z"/>
<path d="M7666 2429 c-25 -29 -26 -37 -26 -144 0 -63 4 -125 10 -139 20 -53
98 -65 138 -20 20 23 22 35 22 145 0 152 -17 188 -87 189 -23 0 -38 -8 -57
-31z m75 -29 c17 -10 19 -22 19 -118 0 -59 -4 -112 -8 -118 -10 -15 -40 -25
-47 -15 -7 13 -8 238 0 251 8 13 12 13 36 0z"/>
<path d="M8257 2435 c-27 -26 -27 -27 -27 -156 0 -128 0 -130 26 -154 40 -37
86 -37 124 1 24 24 25 29 25 154 l0 130 -30 25 c-39 32 -83 32 -118 0z m83
-44 c16 -31 12 -212 -5 -235 -14 -19 -15 -19 -35 -1 -17 16 -20 31 -20 118 0
79 3 104 17 119 21 23 30 23 43 -1z"/>
<path d="M8833 2454 c-8 -4 -10 -47 -7 -152 2 -81 4 -159 4 -174 0 -21 5 -28
19 -28 16 0 20 10 26 70 4 39 11 72 15 75 8 5 20 -53 20 -103 0 -25 6 -35 23
-41 36 -14 47 4 47 80 0 38 4 69 9 69 11 0 21 -36 21 -82 0 -52 9 -68 36 -68
l24 0 -2 178 -3 177 -31 3 c-17 2 -36 -3 -42 -10 -6 -7 -13 -51 -16 -97 -2
-45 -7 -85 -9 -88 -14 -13 -46 60 -54 122 -8 69 -9 70 -38 72 -16 1 -35 0 -42
-3z"/>
</g>
</svg>
